<svg xmlns="http://www.w3.org/2000/svg" viewBox="0 0 1116.76 821.52"><defs><style>.cls-1{fill:#fff;}.cls-2{fill:none;stroke:#fff;stroke-miterlimit:10;stroke-width:2px;}</style></defs><g id="Layer_1" data-name="Layer 1"><rect width="1116.76" height="821.52"/><path class="cls-1" d="M203.43,204.05h49.22v78.7h68.68v-78.7h49.22V404.27H321.33v-77H252.65v77H203.43Z"/><path class="cls-1" d="M394.73,204.05H533.49v43.38H444v35.88h81.2v40.6H444v37.26h90.66v43.1H394.73Z"/><path class="cls-1" d="M659.17,204.05l71.47,200.22H677.81l-11.13-36.7h-64l-11.12,36.7H538.77L610,204.05Zm-5.56,122.08-19.18-65.9-18.91,65.9Z"/><path class="cls-1" d="M813.22,204.05c66.74,0,100.11,39.49,100.11,96.78,0,72-34.76,103.44-107.62,103.44H740.64V204.05Zm-23.36,43.38V361.17h23.36c33.37,0,48.66-18.91,48.66-57,0-37-15.29-56.73-48.66-56.73Z"/><path class="cls-1" d="M504.46,417.25l71.47,200.21H523.09L512,580.76H448l-11.12,36.7H384.06l71.18-200.21ZM498.9,539.32l-19.19-65.9-18.9,65.9Z"/><path class="cls-1" d="M664.07,417.25c50.33,0,76.47,25.86,76.47,65.07,0,25.86-10.29,43.66-30.59,55.34l41.44,79.8H698l-33.65-68.4a96,96,0,0,1-15.58,1.11H635.15v67.29H585.93V417.25Zm-28.92,42.26v51.73h25c20,0,30.31-9.46,30.31-26.7s-9.46-25-28.92-25Z"/><path class="cls-1" d="M801.15,460.63H743.3V417.25H908.21v43.38H850.37V617.46H801.15Z"/><path class="cls-2" d="M203.43,494.66a81.87,81.87,0,1,1,163.74,0Z"/><path class="cls-2" d="M285.3,412.78a81.87,81.87,0,0,1,81.87,81.88H285.3Z"/><path class="cls-2" d="M285.3,576.53a81.87,81.87,0,0,0,81.87-81.87H285.3Z"/><rect class="cls-2" x="285.3" y="576.53" width="81.87" height="40.94"/><path class="cls-2" d="M244.36,494.66a40.94,40.94,0,0,1,40.94-40.94v40.94Z"/><polygon class="cls-2" points="285.3 494.66 285.3 617.46 203.43 617.46 285.3 494.66"/><path class="cls-2" d="M285.3,453.72a40.94,40.94,0,0,1,40.94,40.94H285.3Z"/></g></svg>