<svg xmlns="http://www.w3.org/2000/svg" viewBox="0 0 1251.32 817.01"><defs><style>.cls-1{fill:#eeb440;}.cls-2{fill:#0b6ed1;}.cls-3{fill:#eebecd;}.cls-4{fill:#e0634a;}</style></defs><g id="Layer_1" data-name="Layer 1"><path class="cls-1" d="M625.66,272.34A108.93,108.93,0,0,1,734.6,381.27H625.66Z"/><path class="cls-2" d="M625.66,326.8a54.47,54.47,0,0,1,54.47,54.47H625.66Z"/><path class="cls-3" d="M571.19,381.27a54.47,54.47,0,0,1,54.47-54.47v54.47Z"/><path class="cls-2" d="M979,381.27a108.94,108.94,0,0,0-217.87,0h72.62a36.31,36.31,0,0,1,72.62,0Z"/><rect class="cls-4" x="761.12" y="381.27" width="72.62" height="54.47"/><rect class="cls-4" x="906.36" y="381.27" width="72.62" height="54.47"/><rect class="cls-3" x="761.12" y="435.74" width="72.62" height="108.93"/><rect class="cls-1" x="833.74" y="435.74" width="145.25" height="54.47"/><rect class="cls-4" x="272.34" y="281.71" width="72.62" height="154.03"/><rect class="cls-1" x="272.34" y="490.21" width="72.62" height="54.47"/><rect class="cls-1" x="417.58" y="281.71" width="72.62" height="154.03"/><rect class="cls-2" x="417.58" y="435.74" width="72.62" height="108.93"/><path class="cls-3" d="M625.66,490.21A108.94,108.94,0,0,0,734.6,381.27H625.66Z"/><rect class="cls-4" x="625.66" y="490.21" width="108.93" height="54.47"/><path class="cls-4" d="M516.73,381.27h54.46a54.47,54.47,0,0,1,54.47-54.47V272.34A108.93,108.93,0,0,0,516.73,381.27Z"/><polygon class="cls-1" points="625.66 381.27 625.66 544.67 516.73 544.67 625.66 381.27"/><rect class="cls-3" x="272.34" y="435.74" width="145.25" height="54.47"/><rect class="cls-2" x="906.36" y="490.21" width="72.62" height="54.47"/></g></svg>