<svg xmlns="http://www.w3.org/2000/svg" viewBox="0 0 1251.32 817.01"><defs><style>.cls-1{fill:#0b6ed1;}.cls-2{fill:#eeb440;}.cls-3{fill:#eeebe4;}.cls-4{fill:#eebecd;}.cls-5{fill:#e0634a;}</style></defs><g id="Layer_1" data-name="Layer 1"><rect class="cls-1" width="1251.32" height="817.01"/><path class="cls-2" d="M625.66,272.59A108.73,108.73,0,0,1,734.4,381.32H625.66Z"/><path class="cls-3" d="M625.66,327A54.37,54.37,0,0,1,680,381.32H625.66Z"/><path class="cls-4" d="M571.29,381.32A54.37,54.37,0,0,1,625.66,327v54.37Z"/><path class="cls-3" d="M978.34,381.32a108.74,108.74,0,0,0-217.47,0h72.49a36.25,36.25,0,0,1,72.49,0Z"/><rect class="cls-5" x="760.87" y="381.32" width="72.49" height="54.37"/><rect class="cls-5" x="905.85" y="381.32" width="72.49" height="54.37"/><rect class="cls-4" x="760.87" y="435.69" width="72.49" height="108.74"/><rect class="cls-2" x="833.36" y="435.69" width="144.98" height="54.37"/><rect class="cls-5" x="272.98" y="281.94" width="72.49" height="153.75"/><rect class="cls-2" x="272.98" y="490.06" width="72.49" height="54.37"/><rect class="cls-2" x="417.96" y="281.94" width="72.49" height="153.75"/><rect class="cls-3" x="417.96" y="435.69" width="72.49" height="108.74"/><path class="cls-4" d="M625.66,490.06A108.74,108.74,0,0,0,734.4,381.32H625.66Z"/><rect class="cls-5" x="625.66" y="490.06" width="108.74" height="54.37"/><path class="cls-5" d="M516.93,381.32h54.36A54.37,54.37,0,0,1,625.66,327V272.59A108.73,108.73,0,0,0,516.93,381.32Z"/><polygon class="cls-2" points="625.66 381.32 625.66 544.43 516.93 544.43 625.66 381.32"/><rect class="cls-4" x="272.98" y="435.69" width="144.98" height="54.37"/><rect class="cls-3" x="905.85" y="490.06" width="72.49" height="54.37"/></g></svg>