<svg xmlns="http://www.w3.org/2000/svg" viewBox="0 0 851 315"><defs><style>.cls-1{fill:#0b6ed1;}.cls-2{fill:#ede9df;}.cls-3{fill:#e0634a;}.cls-4{fill:#eeaf3f;}.cls-5{fill:#eabac9;}</style></defs><g id="Layer_2" data-name="Layer 2"><rect class="cls-1" x="-19.09" y="-7.07" width="889.18" height="329.13"/></g><g id="Layer_1" data-name="Layer 1"><path class="cls-2" d="M114,114.77h21.49v34.36h30V114.77h21.48v87.4H165.46V168.55h-30v33.62H114Z"/><path class="cls-2" d="M197.5,114.77h60.57v18.94H219v15.66h35.44v17.72H219v16.27h39.57v18.81H197.5Z"/><path class="cls-2" d="M312.93,114.77l31.2,87.4H321.07l-4.86-16H288.29l-4.85,16H260.37l31.08-87.4Zm-2.42,53.29-8.38-28.77-8.25,28.77Z"/><path class="cls-2" d="M380.18,114.77c29.13,0,43.7,17.24,43.7,42.25,0,31.44-15.17,45.15-47,45.15H348.5v-87.4ZM370,133.71v49.65h10.2c14.57,0,21.24-8.26,21.24-24.89,0-16.14-6.67-24.76-21.24-24.76Z"/><path class="cls-2" d="M560.76,114.77l31.2,87.4H568.9l-4.86-16H536.12l-4.85,16H508.2l31.08-87.4Zm-2.42,53.29L550,139.29l-8.25,28.77Z"/><path class="cls-2" d="M630.44,114.77c22,0,33.38,11.29,33.38,28.41,0,11.29-4.49,19.06-13.35,24.16l18.08,34.83h-23.3l-14.69-29.86a41.09,41.09,0,0,1-6.8.49h-6v29.37H596.33v-87.4Zm-12.63,18.45V155.8h10.93c8.74,0,13.23-4.12,13.23-11.65s-4.13-10.93-12.63-10.93Z"/><path class="cls-2" d="M690.27,133.71H665V114.77h72v18.94H711.76v68.46H690.27Z"/><path class="cls-3" d="M429.36,148.57a35.74,35.74,0,1,1,71.47,0Z"/><path class="cls-4" d="M465.09,112.83a35.74,35.74,0,0,1,35.74,35.74H465.09Z"/><path class="cls-3" d="M465.09,184.3a35.74,35.74,0,0,0,35.74-35.73H465.09Z"/><rect class="cls-4" x="465.09" y="184.3" width="35.74" height="17.87"/><path class="cls-2" d="M447.22,148.57a17.88,17.88,0,0,1,17.87-17.87v17.87Z"/><polygon class="cls-5" points="465.09 148.56 465.09 202.17 429.36 202.17 465.09 148.56"/><path class="cls-5" d="M465.09,130.7A17.87,17.87,0,0,1,483,148.57H465.09Z"/></g></svg>