<svg xmlns="http://www.w3.org/2000/svg" viewBox="0 0 1116.76 821.52"><defs><style>.cls-1{fill:#0b6ed1;}.cls-2{fill:#eeebe4;}.cls-3{fill:#e0634a;}.cls-4{fill:#eeb440;}.cls-5{fill:#eebecd;}</style></defs><g id="Layer_1" data-name="Layer 1"><rect class="cls-1" width="1116.76" height="821.52"/><path class="cls-2" d="M204,204.37h49.14V283h68.58V204.37h49.15V404.28H321.69V327.37H253.11v76.91H204Z"/><path class="cls-2" d="M395,204.37H533.53v43.31h-89.4V283.5H525.2V324H444.13v37.2h90.51v43H395Z"/><path class="cls-2" d="M659,204.37l71.36,199.91H677.62l-11.1-36.65H602.66l-11.11,36.65H538.8l71.08-199.91Zm-5.55,121.89-19.16-65.8-18.88,65.8Z"/><path class="cls-2" d="M812.83,204.37c66.64,0,100,39.43,100,96.62,0,71.92-34.71,103.29-107.46,103.29h-65V204.37Zm-23.32,43.31V361.24h23.32c33.32,0,48.59-18.88,48.59-56.91,0-36.93-15.27-56.65-48.59-56.65Z"/><path class="cls-2" d="M504.55,417.24,575.9,617.15H523.15L512,580.5H448.18l-11.1,36.65H384.32L455.4,417.24ZM499,539.13l-19.16-65.81L461,539.13Z"/><path class="cls-2" d="M663.91,417.24c50.25,0,76.35,25.82,76.35,65,0,25.82-10.27,43.59-30.54,55.25l41.37,79.69H697.78l-33.59-68.3A95.78,95.78,0,0,1,648.64,550H635v67.19H585.89V417.24ZM635,459.44v51.65h25c20,0,30.27-9.44,30.27-26.66s-9.44-25-28.88-25Z"/><path class="cls-2" d="M800.78,460.55H743V417.24H907.68v43.31H849.92v156.6H800.78Z"/><path class="cls-3" d="M204,494.53a81.75,81.75,0,1,1,163.49,0Z"/><path class="cls-4" d="M285.72,412.78a81.75,81.75,0,0,1,81.74,81.75H285.72Z"/><path class="cls-5" d="M285.72,576.28a81.75,81.75,0,0,0,81.74-81.75H285.72Z"/><rect class="cls-3" x="285.72" y="576.28" width="81.75" height="40.87"/><path class="cls-5" d="M244.84,494.53a40.88,40.88,0,0,1,40.88-40.88v40.88Z"/><polygon class="cls-4" points="285.72 494.53 285.72 617.15 203.97 617.15 285.72 494.53"/><path class="cls-2" d="M285.72,453.65a40.87,40.87,0,0,1,40.87,40.88H285.72Z"/></g></svg>