<svg xmlns="http://www.w3.org/2000/svg" viewBox="0 0 1116.76 821.52"><defs><style>.cls-1{fill:#0b6ed1;}.cls-2{fill:#e0634a;}.cls-3{fill:#eeb440;}.cls-4{fill:#eebecd;}</style></defs><g id="Layer_1" data-name="Layer 1"><path class="cls-1" d="M204.37,204.37h49.14V283h68.58V204.37h49.15V404.28H322.09V327.37H253.51v76.91H204.37Z"/><path class="cls-1" d="M395.38,204.37H533.93v43.31h-89.4V283.5H525.6V324H444.53v37.2H535v43H395.38Z"/><path class="cls-1" d="M659.42,204.37l71.36,199.91H678l-11.1-36.65H603.06L592,404.28H539.2l71.08-199.91Zm-5.55,121.89-19.16-65.8-18.88,65.8Z"/><path class="cls-1" d="M813.23,204.37c66.64,0,100,39.43,100,96.62,0,71.92-34.71,103.29-107.46,103.29h-65V204.37Zm-23.32,43.31V361.24h23.32c33.32,0,48.59-18.88,48.59-56.91,0-36.93-15.27-56.65-48.59-56.65Z"/><path class="cls-1" d="M504.94,417.24,576.3,617.15H523.55L512.44,580.5H448.58l-11.11,36.65H384.72L455.8,417.24Zm-5.55,121.89-19.16-65.81-18.88,65.81Z"/><path class="cls-1" d="M664.31,417.24c50.25,0,76.35,25.82,76.35,65,0,25.82-10.27,43.59-30.54,55.25l41.37,79.69H698.18l-33.6-68.3A95.58,95.58,0,0,1,649,550H635.43v67.19H586.29V417.24Zm-28.88,42.2v51.65h25c20,0,30.27-9.44,30.27-26.66s-9.44-25-28.88-25Z"/><path class="cls-1" d="M801.18,460.55H743.42V417.24H908.08v43.31H850.32v156.6H801.18Z"/><path class="cls-2" d="M204.37,494.53a81.75,81.75,0,1,1,163.49,0Z"/><path class="cls-3" d="M286.12,412.78a81.75,81.75,0,0,1,81.74,81.75H286.12Z"/><path class="cls-4" d="M286.12,576.28a81.75,81.75,0,0,0,81.74-81.75H286.12Z"/><rect class="cls-2" x="286.12" y="576.28" width="81.75" height="40.87"/><path class="cls-4" d="M245.24,494.53a40.88,40.88,0,0,1,40.88-40.88v40.88Z"/><polygon class="cls-3" points="286.12 494.53 286.12 617.15 204.37 617.15 286.12 494.53"/><path class="cls-1" d="M286.12,453.65A40.87,40.87,0,0,1,327,494.53H286.12Z"/></g></svg>