<svg xmlns="http://www.w3.org/2000/svg" viewBox="0 0 1904.78 632.08"><defs><style>.cls-1{fill:#0b6ed1;}.cls-2{fill:#eeebe4;}.cls-3{fill:#e0634a;}.cls-4{fill:#eeb440;}.cls-5{fill:#eebecd;}</style></defs><g id="Layer_1" data-name="Layer 1"><rect class="cls-1" width="1904.78" height="632.08"/><path class="cls-2" d="M209.62,214.13h51.23v81.92h71.49V214.13h51.23v208.4H332.34V342.36H260.85v80.17H209.62Z"/><path class="cls-2" d="M408.74,214.13H553.17v45.16H460v37.34h84.52v42.25H460v38.79h94.36v44.86H408.74Z"/><path class="cls-2" d="M684,214.13l74.39,208.4h-55l-11.58-38.2H625.23l-11.58,38.2h-55l74.1-208.4ZM678.2,341.2l-20-68.6-19.68,68.6Z"/><path class="cls-2" d="M844.33,214.13c69.46,0,104.19,41.11,104.19,100.73,0,75-36.18,107.67-112,107.67H768.78V214.13ZM820,259.29V377.67h24.32c34.73,0,50.65-19.68,50.65-59.33,0-38.5-15.92-59-50.65-59Z"/><path class="cls-2" d="M1274.92,214.13l74.39,208.4h-55l-11.58-38.2h-66.57l-11.58,38.2h-55l74.1-208.4Zm-5.79,127.07-20-68.6-19.68,68.6Z"/><path class="cls-2" d="M1441,214.13c52.39,0,79.6,26.92,79.6,67.73,0,26.92-10.71,45.45-31.84,57.6l43.13,83.07h-55.57l-35-71.2a99.08,99.08,0,0,1-16.21,1.16h-14.18v70h-51.23V214.13Zm-30.1,44V312h26c20.84,0,31.55-9.84,31.55-27.79s-9.84-26.05-30.1-26.05Z"/><path class="cls-2" d="M1583.72,259.29h-60.2V214.13h171.64v45.16H1635V422.53h-51.23Z"/><path class="cls-3" d="M1046.8,209.54a85.18,85.18,0,0,0-85.18,85.18h85.18Z"/><path class="cls-4" d="M1046.8,209.54A85.18,85.18,0,0,1,1132,294.72H1046.8Z"/><path class="cls-5" d="M1046.8,379.9A85.18,85.18,0,0,0,1132,294.72H1046.8Z"/><rect class="cls-3" x="1046.8" y="379.9" width="85.18" height="42.59"/><path class="cls-5" d="M1004.21,294.72a42.59,42.59,0,0,1,42.59-42.59v42.59Z"/><polygon class="cls-4" points="1046.8 294.72 1046.8 422.48 961.62 422.48 1046.8 294.72"/><path class="cls-2" d="M1046.8,252.13a42.59,42.59,0,0,1,42.59,42.59H1046.8Z"/></g></svg>