<svg xmlns="http://www.w3.org/2000/svg" viewBox="0 0 1904.78 632.08"><defs><style>.cls-1{fill:#e0634a;}.cls-2{fill:#eeb440;}.cls-3{fill:#eebecd;}.cls-4{fill:#0b6ed1;}</style></defs><g id="Layer_1" data-name="Layer 1"><path class="cls-1" d="M1046.47,207.68a84.88,84.88,0,0,0-84.88,84.88h84.88Z"/><path class="cls-2" d="M1046.47,207.68a84.88,84.88,0,0,1,84.88,84.88h-84.88Z"/><path class="cls-3" d="M1046.47,377.44a84.88,84.88,0,0,0,84.88-84.88h-84.88Z"/><rect class="cls-1" x="1046.47" y="377.44" width="84.88" height="42.44"/><path class="cls-3" d="M1004,292.56a42.44,42.44,0,0,1,42.44-42.44v42.44Z"/><polygon class="cls-2" points="1046.47 292.56 1046.47 419.88 961.59 419.88 1046.47 292.56"/><path class="cls-4" d="M1046.47,250.12a42.44,42.44,0,0,1,42.44,42.44h-42.44Z"/><path class="cls-4" d="M212.2,212.2h51.06v81.63H334.5V212.2h51.05V419.88H334.5V340H263.26v79.9H212.2Z"/><path class="cls-4" d="M410.63,212.2H554.56v45H461.68v37.21h84.23v42.11H461.68v38.65h94v44.71H410.63Z"/><path class="cls-4" d="M684.92,212.2l74.13,207.68h-54.8L692.71,381.8H626.37l-11.54,38.08H560L633.87,212.2Zm-5.77,126.63-19.9-68.36-19.61,68.36Z"/><path class="cls-4" d="M844.7,212.2c69.23,0,103.84,41,103.84,100.38,0,74.7-36.06,107.3-111.63,107.3H769.42V212.2Zm-24.23,45v118H844.7c34.61,0,50.48-19.61,50.48-59.13,0-38.36-15.87-58.84-50.48-58.84Z"/><path class="cls-4" d="M1273.8,212.2l74.13,207.68h-54.81l-11.54-38.08h-66.34l-11.53,38.08H1148.9l73.84-207.68ZM1268,338.83l-19.9-68.36-19.62,68.36Z"/><path class="cls-4" d="M1439.35,212.2c52.2,0,79.32,26.83,79.32,67.49,0,26.83-10.67,45.29-31.73,57.41l43,82.78h-55.38l-34.91-71a98.43,98.43,0,0,1-16.15,1.15h-14.13v69.81h-51V212.2Zm-30,43.84v53.65h26c20.77,0,31.44-9.8,31.44-27.69s-9.81-26-30-26Z"/><path class="cls-4" d="M1581.53,257.2h-60v-45h171v45h-60V419.88h-51Z"/></g></svg>