<svg xmlns="http://www.w3.org/2000/svg" viewBox="0 0 360 360"><defs><style>.cls-1{fill:#eeb440;}.cls-2{fill:#0b6ed1;}.cls-3{fill:#eebecd;}.cls-4{fill:#e0634a;}.cls-5{fill:#fff;}</style></defs><g id="Layer_1" data-name="Layer 1"><path class="cls-1" d="M180,128.82A41,41,0,0,1,221,169.76H180Z"/><path class="cls-2" d="M180,149.29a20.47,20.47,0,0,1,20.47,20.47H180Z"/><path class="cls-3" d="M159.53,169.76H180V149.29A20.47,20.47,0,0,0,159.53,169.76Z"/><path class="cls-2" d="M312.81,169.76a40.95,40.95,0,0,0-81.89,0m27.29,0a13.65,13.65,0,1,1,27.3,0"/><rect class="cls-4" x="230.92" y="169.76" width="27.3" height="20.47"/><rect class="cls-4" x="285.51" y="169.76" width="27.3" height="61.42"/><rect class="cls-3" x="230.92" y="190.24" width="27.3" height="40.95"/><rect class="cls-1" x="258.21" y="190.24" width="54.6" height="20.47"/><rect class="cls-4" x="47.19" y="132.34" width="27.3" height="98.85"/><rect class="cls-1" x="47.19" y="190.24" width="27.3" height="40.95"/><rect class="cls-1" x="101.79" y="132.34" width="27.3" height="57.9"/><rect class="cls-2" x="101.79" y="190.24" width="27.3" height="40.95"/><path class="cls-3" d="M180,210.71a41,41,0,0,0,40.95-41H180Z"/><rect class="cls-4" x="180" y="210.71" width="40.95" height="20.47"/><path class="cls-4" d="M139.05,169.76h20.48A20.47,20.47,0,0,1,180,149.29v20.47h0V128.82A41,41,0,0,0,139.05,169.76Z"/><polygon class="cls-1" points="180 169.76 180 231.18 139.05 231.18 180 169.76"/><rect class="cls-3" x="47.19" y="190.24" width="54.6" height="20.47"/><rect class="cls-2" x="285.51" y="210.71" width="27.3" height="20.47"/><ellipse class="cls-5" cx="271.86" cy="169.76" rx="13.65" ry="1.18"/></g></svg>