<svg xmlns="http://www.w3.org/2000/svg" viewBox="0 0 320 320"><defs><style>.cls-1{fill:#0b6ed1;}.cls-2{fill:#e0634a;}.cls-3{fill:#e6abc0;}.cls-4{fill:#eeb440;}.cls-5{fill:#eebecd;}.cls-6{fill:#eeebe4;}</style></defs><g id="Layer_1" data-name="Layer 1"><circle class="cls-1" cx="160" cy="160" r="160"/><path class="cls-2" d="M92.43,143.11a67.57,67.57,0,0,1,135.14,0Z"/><path class="cls-3" d="M160,75.54a67.57,67.57,0,0,1,67.57,67.57H160Z"/><path class="cls-1" d="M126.22,143.11A33.78,33.78,0,0,1,160,109.32v33.79Z"/><path class="cls-2" d="M92.43,143.11a67.57,67.57,0,0,1,135.14,0Z"/><path class="cls-4" d="M160,75.54a67.57,67.57,0,0,1,67.57,67.57H160Z"/><path class="cls-5" d="M160,210.68a67.57,67.57,0,0,0,67.57-67.57H160Z"/><rect class="cls-2" x="160" y="210.68" width="67.57" height="33.78"/><path class="cls-5" d="M126.22,143.11A33.78,33.78,0,0,1,160,109.32v33.79Z"/><polygon class="cls-4" points="160 143.11 160 244.46 92.43 244.46 160 143.11"/><path class="cls-6" d="M160,109.32a33.78,33.78,0,0,1,33.78,33.79H160Z"/></g></svg>