<?xml version="1.0" encoding="utf-8"?>
<!-- Svg Vector Icons : http://www.onlinewebfonts.com/icon -->
<!DOCTYPE svg PUBLIC "-//W3C//DTD SVG 1.1//EN" "http://www.w3.org/Graphics/SVG/1.1/DTD/svg11.dtd">
<svg version="1.1" xmlns="http://www.w3.org/2000/svg" xmlns:xlink="http://www.w3.org/1999/xlink" x="0px" y="0px" viewBox="0 0 1000 1000" enable-background="new 0 0 1000 1000" xml:space="preserve">
<metadata> Svg Vector Icons : http://www.onlinewebfonts.com/icon </metadata>
<g><g transform="translate(0.000000,250.000000) scale(0.100000,-0.100000)"><path d="M4565.3,2336.9c-54.6-7.8-229.9-35.1-389.7-58.5c-939.2-136.4-1940.8-650.8-2650.1-1364c-1859-1858.9-1905.7-4820.8-105.2-6722.6c744.4-787.2,1683.6-1293.9,2743.6-1477c717.1-124.7,1710.9-54.5,2389,175.4c2572.1,861.3,3947.8,3601,3094.3,6149.7C9008,957.3,7203.7,2282.3,5149.9,2340.8C4880.9,2348.6,4619.8,2348.6,4565.3,2336.9z M5753.9,1651C6599.6,1510.7,7558.3,988.5,8135.1,361C9117.1-714.6,9487.4-2172.1,9125-3582.9c-101.3-393.6-440.4-1091.2-693.7-1422.5C7819.4-5808.1,7028.3-6334.2,6015-6611c-253.3-70.1-413.1-81.8-1001.6-81.8c-639.1-3.9-736.6,7.8-1083.4,101.3c-432.6,116.9-993.8,370.2-1356.2,611.9c-323.5,218.3-908,806.7-1118.5,1130.2c-448.2,682-662.5,1336.7-697.6,2127.9c-27.3,604,23.4,1024.9,183.2,1504.3C1615.1,813.1,3626,2009.5,5753.9,1651z"/><path d="M4943.3,762.4C4721.1,704,4561.4,614.4,4378.2,439C4121,189.6,4054.7-36.5,4027.5-745.8L4008-1342h-323.5h-327.4v-506.6v-506.6h331.3h331.3l7.8-1683.6l11.7-1687.5l635.2-11.7l631.4-7.8v1695.3v1695.3h502.7h502.7l23.4,109.1c11.7,58.5,31.2,284.5,46.8,506.6l23.4,397.5h-549.5h-549.5v366.3c0,424.8,42.9,576.8,183.2,650.8c101.3,54.6,393.6,70.1,713.2,35.1l175.4-19.5l74,475.5c42.9,265,66.3,491,50.7,502.7C6416.4,758.5,5204.4,828.7,4943.3,762.4z"/></g></g>
</svg>