<?xml version="1.0" encoding="UTF-8"?>
<svg width="1200pt" height="1200pt" version="1.1" viewBox="0 0 1200 1200" xmlns="http://www.w3.org/2000/svg">
 <path d="m731.25 159.38h-262.5c-82.027 0.082031-160.67 32.699-218.67 90.703-58.004 58-90.621 136.64-90.703 218.67v262.5c0.082031 82.027 32.703 160.67 90.703 218.67s136.64 90.621 218.67 90.703h262.5c82.027-0.082031 160.67-32.703 218.67-90.703s90.621-136.64 90.703-218.67v-262.5c-0.082031-82.027-32.699-160.67-90.703-218.67-58-58.004-136.64-90.621-218.67-90.703zm-131.25 645.75c-54.402 0-106.58-21.609-145.05-60.078s-60.078-90.645-60.078-145.05 21.609-106.58 60.078-145.05 90.645-60.078 145.05-60.078 106.58 21.609 145.05 60.078 60.078 90.645 60.078 145.05c-0.074219 54.379-21.711 106.51-60.164 144.96-38.453 38.453-90.582 60.09-144.96 60.164zm263.06-400.69c-1.7031 1.7578-3.5859 3.332-5.625 4.6875-2.0898 1.3086-4.2852 2.4375-6.5625 3.375-2.2188 0.96875-4.5508 1.6602-6.9375 2.0625-2.4023 0.52734-4.8555 0.77734-7.3125 0.75-4.9414-0.0625-9.832-1.0156-14.438-2.8125-2.2188-0.9375-4.3516-2.0664-6.375-3.375-2.0625-1.4023-4.0039-2.9688-5.8125-4.6875-6.9805-7.1016-10.887-16.668-10.875-26.625-0.027344-2.457 0.22266-4.9102 0.75-7.3125 0.40234-2.3867 1.0938-4.7188 2.0625-6.9375 0.9375-2.2812 2.0664-4.4766 3.375-6.5625 1.4102-1.9961 2.9805-3.875 4.6875-5.625 1.8047-1.7188 3.75-3.2852 5.8125-4.6875 2.0234-1.3086 4.1562-2.4375 6.375-3.375 2.3086-0.94531 4.6914-1.6992 7.125-2.25 12.266-2.3906 24.918 1.4727 33.75 10.312 1.7617 1.6992 3.332 3.5859 4.6875 5.625 1.3711 2.082 2.5625 4.2773 3.5625 6.5625 0.88281 2.25 1.5742 4.5703 2.0625 6.9375 0.43359 2.4141 0.6875 4.8594 0.75 7.3125 0.027344 10-3.957 19.59-11.062 26.625zm-263.06 46.688c-39.484 0-77.352 15.684-105.27 43.605-27.922 27.918-43.605 65.785-43.605 105.27s15.684 77.352 43.605 105.27c27.918 27.922 65.785 43.605 105.27 43.605s77.352-15.684 105.27-43.605c27.922-27.918 43.605-65.785 43.605-105.27-0.03125-39.473-15.727-77.324-43.641-105.23-27.91-27.914-65.762-43.609-105.23-43.641zm-18.188 96.938c-10.777 3.7656-20.117 10.785-26.734 20.09-6.6172 9.3047-10.184 20.43-10.203 31.848 0 10.047-5.3594 19.332-14.062 24.355-8.7031 5.0273-19.422 5.0273-28.125 0-8.7031-5.0234-14.062-14.309-14.062-24.355 0.023438-23.078 7.2148-45.578 20.582-64.391 13.371-18.809 32.254-33 54.043-40.609 9.4648-3.2617 19.949-1.2422 27.523 5.3008 7.5781 6.543 11.105 16.621 9.2578 26.457-1.8477 9.8398-8.7852 17.953-18.219 21.305z" fill="#fff"/>
</svg>
