<svg xmlns="http://www.w3.org/2000/svg" viewBox="0 0 1904.78 632.08"><defs><style>.cls-1{fill:none;stroke:#000;stroke-miterlimit:10;stroke-width:2px;}</style></defs><g id="Layer_1" data-name="Layer 1"><path d="M212.13,214.51h51.06v81.63h71.25V214.51H385.5V422.2H334.44V342.29H263.19V422.2H212.13Z"/><path d="M410.58,214.51H554.52v45H461.64v37.21h84.23v42.11H461.64v38.66h94V422.2H410.58Z"/><path d="M684.9,214.51,759,422.2H704.22l-11.53-38.08H626.34L614.8,422.2H560l73.85-207.69Zm-5.77,126.63-19.91-68.36-19.61,68.36Z"/><path d="M844.69,214.51c69.23,0,103.85,41,103.85,100.38,0,74.71-36.06,107.31-111.64,107.31H769.4V214.51Zm-24.23,45v118h24.23c34.62,0,50.48-19.62,50.48-59.14,0-38.36-15.86-58.84-50.48-58.84Z"/><path d="M1273.83,214.51,1348,422.2h-54.81l-11.54-38.08h-66.34l-11.54,38.08h-54.81l73.85-207.69Zm-5.77,126.63-19.91-68.36-19.61,68.36Z"/><path d="M1439.39,214.51c52.21,0,79.33,26.82,79.33,67.5,0,26.82-10.67,45.29-31.73,57.4l43,82.79h-55.39l-34.9-71a99.67,99.67,0,0,1-16.16,1.15h-14.13V422.2h-51.06V214.51Zm-30,43.84V312h26c20.77,0,31.44-9.81,31.44-27.7s-9.8-26-30-26Z"/><path d="M1581.59,259.51h-60v-45h171.07v45h-60V422.2h-51.05Z"/><path class="cls-1" d="M961.55,294.81a84.93,84.93,0,0,1,169.86,0Z"/><path class="cls-1" d="M1046.48,209.88a84.93,84.93,0,0,1,84.93,84.93h-84.93Z"/><path class="cls-1" d="M1046.48,379.73a84.93,84.93,0,0,0,84.93-84.92h-84.93Z"/><rect class="cls-1" x="1046.48" y="379.73" width="84.93" height="42.46"/><path class="cls-1" d="M1004,294.81a42.46,42.46,0,0,1,42.46-42.47v42.47Z"/><polygon class="cls-1" points="1046.48 294.81 1046.48 422.2 961.55 422.2 1046.48 294.81"/><path class="cls-1" d="M1046.48,252.34a42.46,42.46,0,0,1,42.46,42.47h-42.46Z"/></g></svg>