<svg xmlns="http://www.w3.org/2000/svg" viewBox="0 0 1904.78 632.08"><defs><style>.cls-1{fill:#fff;}.cls-2{fill:none;stroke:#fff;stroke-miterlimit:10;stroke-width:2px;}</style></defs><g id="Layer_1" data-name="Layer 1"><rect width="1904.78" height="632.08"/><path class="cls-1" d="M209.8,214.18H261v81.9h71.47v-81.9h51.22V422.53H332.49V342.38H261v80.15H209.8Z"/><path class="cls-1" d="M408.87,214.18h144.4v45.15H460.09v37.33h84.5V338.9h-84.5v38.78h94.34v44.85H408.87Z"/><path class="cls-1" d="M684.05,214.18l74.37,208.35h-55l-11.57-38.19H625.31l-11.58,38.19h-55l74.08-208.35Zm-5.79,127-20-68.58-19.68,68.58Z"/><path class="cls-1" d="M844.35,214.18c69.45,0,104.18,41.1,104.18,100.71,0,74.94-36.18,107.64-112,107.64H768.83V214.18Zm-24.3,45.15V377.68h24.3c34.73,0,50.64-19.68,50.64-59.32,0-38.49-15.91-59-50.64-59Z"/><path class="cls-1" d="M1274.84,214.18l74.37,208.35h-55l-11.58-38.19H1216.1l-11.58,38.19h-55l74.08-208.35Zm-5.79,127-20-68.58-19.68,68.58Z"/><path class="cls-1" d="M1440.93,214.18c52.37,0,79.58,26.92,79.58,67.72,0,26.91-10.71,45.43-31.84,57.58l43.12,83h-55.56l-35-71.18a99.24,99.24,0,0,1-16.21,1.16h-14.18v70h-51.22V214.18Zm-30.1,44V312h26.05c20.83,0,31.54-9.83,31.54-27.78s-9.84-26-30.1-26Z"/><path class="cls-1" d="M1583.57,259.33h-60.19V214.18H1695v45.15h-60.19v163.2h-51.22Z"/><path class="cls-2" d="M961.58,294.74a85.2,85.2,0,1,1,170.39,0Z"/><path class="cls-2" d="M1046.78,209.54a85.2,85.2,0,0,1,85.19,85.2h-85.19Z"/><path class="cls-2" d="M1046.78,379.94a85.2,85.2,0,0,0,85.19-85.2h-85.19Z"/><rect class="cls-2" x="1046.78" y="379.94" width="85.2" height="42.6"/><path class="cls-2" d="M1004.18,294.74a42.6,42.6,0,0,1,42.6-42.6v42.6Z"/><polygon class="cls-2" points="1046.78 294.74 1046.78 422.53 961.58 422.53 1046.78 294.74"/><path class="cls-2" d="M1046.78,252.14a42.59,42.59,0,0,1,42.59,42.6h-42.59Z"/></g></svg>